<mxfile host="app.diagrams.net" modified="2024-07-22T18:05:23.223Z" agent="Mozilla/5.0 (Windows NT 10.0; Win64; x64) AppleWebKit/537.36 (KHTML, like Gecko) Chrome/126.0.0.0 Safari/537.36" etag="P7j9kT2QJmGfiaEScFgL" version="24.7.1" type="github">
  <diagram name="Page-1" id="M1t9FGvkU17HdAlIoPvs">
    <mxGraphModel dx="2269" dy="1223" grid="0" gridSize="10" guides="1" tooltips="1" connect="1" arrows="1" fold="1" page="0" pageScale="1" pageWidth="850" pageHeight="1100" math="0" shadow="0">
      <root>
        <mxCell id="0" />
        <mxCell id="1" parent="0" />
        <mxCell id="ed4Wh0j3ZcqlSjC6VKng-1" value="" style="shape=image;verticalLabelPosition=bottom;labelBackgroundColor=default;verticalAlign=top;aspect=fixed;imageAspect=0;image=https://files.readme.io/d009ae7-photo_2024-04-02_17-54-04.jpg;" vertex="1" parent="1">
          <mxGeometry x="175.53330993652344" y="165.66665267944336" width="1200" height="848" as="geometry" />
        </mxCell>
        <mxCell id="ed4Wh0j3ZcqlSjC6VKng-5" value="" style="edgeStyle=none;curved=1;rounded=0;orthogonalLoop=1;jettySize=auto;html=1;fontSize=12;startSize=8;endSize=8;" edge="1" parent="1" source="ed4Wh0j3ZcqlSjC6VKng-2" target="ed4Wh0j3ZcqlSjC6VKng-4">
          <mxGeometry relative="1" as="geometry" />
        </mxCell>
        <mxCell id="ed4Wh0j3ZcqlSjC6VKng-2" value="" style="ellipse;whiteSpace=wrap;html=1;aspect=fixed;" vertex="1" parent="1">
          <mxGeometry x="1576" y="396" width="128" height="128" as="geometry" />
        </mxCell>
        <mxCell id="ed4Wh0j3ZcqlSjC6VKng-3" value="" style="shape=actor;whiteSpace=wrap;html=1;" vertex="1" parent="1">
          <mxGeometry x="1620" y="428" width="40" height="60" as="geometry" />
        </mxCell>
        <mxCell id="ed4Wh0j3ZcqlSjC6VKng-4" value="&lt;b&gt;&lt;font style=&quot;font-size: 16px;&quot;&gt;Universal Account SDK&lt;/font&gt;&lt;/b&gt;" style="rounded=1;whiteSpace=wrap;html=1;" vertex="1" parent="1">
          <mxGeometry x="1816" y="396" width="202" height="133" as="geometry" />
        </mxCell>
        <mxCell id="ed4Wh0j3ZcqlSjC6VKng-7" value="" style="rounded=1;whiteSpace=wrap;html=1;" vertex="1" parent="1">
          <mxGeometry x="1749" y="625" width="329" height="220" as="geometry" />
        </mxCell>
        <mxCell id="ed4Wh0j3ZcqlSjC6VKng-8" value="&lt;h1 style=&quot;margin-top: 0px;&quot;&gt;Abstraction&lt;/h1&gt;" style="text;html=1;whiteSpace=wrap;overflow=hidden;rounded=0;" vertex="1" parent="1">
          <mxGeometry x="1845" y="636" width="139" height="48" as="geometry" />
        </mxCell>
        <mxCell id="ed4Wh0j3ZcqlSjC6VKng-38" style="edgeStyle=orthogonalEdgeStyle;rounded=0;orthogonalLoop=1;jettySize=auto;html=1;entryX=0;entryY=0.5;entryDx=0;entryDy=0;fontSize=12;startSize=8;endSize=8;" edge="1" parent="1" source="ed4Wh0j3ZcqlSjC6VKng-9" target="ed4Wh0j3ZcqlSjC6VKng-25">
          <mxGeometry relative="1" as="geometry">
            <Array as="points">
              <mxPoint x="1828" y="891" />
            </Array>
          </mxGeometry>
        </mxCell>
        <mxCell id="ed4Wh0j3ZcqlSjC6VKng-43" value="handle userOps" style="edgeLabel;html=1;align=center;verticalAlign=middle;resizable=0;points=[];fontSize=12;" vertex="1" connectable="0" parent="ed4Wh0j3ZcqlSjC6VKng-38">
          <mxGeometry x="0.0037" y="-1" relative="1" as="geometry">
            <mxPoint x="-1" as="offset" />
          </mxGeometry>
        </mxCell>
        <mxCell id="ed4Wh0j3ZcqlSjC6VKng-9" value="&lt;b&gt;Bundler&lt;/b&gt;" style="rounded=1;whiteSpace=wrap;html=1;" vertex="1" parent="1">
          <mxGeometry x="1781" y="703" width="93" height="106" as="geometry" />
        </mxCell>
        <mxCell id="ed4Wh0j3ZcqlSjC6VKng-14" style="edgeStyle=orthogonalEdgeStyle;rounded=0;orthogonalLoop=1;jettySize=auto;html=1;entryX=0;entryY=0.5;entryDx=0;entryDy=0;fontSize=12;startSize=8;endSize=8;" edge="1" parent="1" source="ed4Wh0j3ZcqlSjC6VKng-10" target="ed4Wh0j3ZcqlSjC6VKng-11">
          <mxGeometry relative="1" as="geometry" />
        </mxCell>
        <mxCell id="ed4Wh0j3ZcqlSjC6VKng-10" value="&lt;b&gt;MPCNODES&lt;/b&gt;" style="rounded=1;whiteSpace=wrap;html=1;" vertex="1" parent="1">
          <mxGeometry x="1898" y="703" width="163" height="106" as="geometry" />
        </mxCell>
        <mxCell id="ed4Wh0j3ZcqlSjC6VKng-11" value="&lt;b&gt;Key Store&lt;/b&gt;" style="rounded=1;whiteSpace=wrap;html=1;" vertex="1" parent="1">
          <mxGeometry x="2124" y="661" width="93" height="106" as="geometry" />
        </mxCell>
        <mxCell id="ed4Wh0j3ZcqlSjC6VKng-39" style="edgeStyle=orthogonalEdgeStyle;rounded=0;orthogonalLoop=1;jettySize=auto;html=1;entryX=0;entryY=0.5;entryDx=0;entryDy=0;fontSize=12;startSize=8;endSize=8;" edge="1" parent="1" source="ed4Wh0j3ZcqlSjC6VKng-15" target="ed4Wh0j3ZcqlSjC6VKng-30">
          <mxGeometry relative="1" as="geometry">
            <Array as="points">
              <mxPoint x="2271" y="562.5" />
              <mxPoint x="2271" y="1057" />
            </Array>
          </mxGeometry>
        </mxCell>
        <mxCell id="ed4Wh0j3ZcqlSjC6VKng-44" value="Universal IBC" style="edgeLabel;html=1;align=center;verticalAlign=middle;resizable=0;points=[];fontSize=12;" vertex="1" connectable="0" parent="ed4Wh0j3ZcqlSjC6VKng-39">
          <mxGeometry x="-0.5413" y="2" relative="1" as="geometry">
            <mxPoint x="-3" y="150" as="offset" />
          </mxGeometry>
        </mxCell>
        <mxCell id="ed4Wh0j3ZcqlSjC6VKng-41" style="edgeStyle=orthogonalEdgeStyle;rounded=0;orthogonalLoop=1;jettySize=auto;html=1;entryX=1;entryY=0.5;entryDx=0;entryDy=0;fontSize=12;startSize=8;endSize=8;" edge="1" parent="1" source="ed4Wh0j3ZcqlSjC6VKng-15" target="ed4Wh0j3ZcqlSjC6VKng-4">
          <mxGeometry relative="1" as="geometry">
            <Array as="points">
              <mxPoint x="2476" y="463" />
            </Array>
          </mxGeometry>
        </mxCell>
        <mxCell id="ed4Wh0j3ZcqlSjC6VKng-15" value="" style="rounded=1;whiteSpace=wrap;html=1;" vertex="1" parent="1">
          <mxGeometry x="2332" y="488" width="288" height="149" as="geometry" />
        </mxCell>
        <mxCell id="ed4Wh0j3ZcqlSjC6VKng-18" value="" style="edgeStyle=none;curved=1;rounded=0;orthogonalLoop=1;jettySize=auto;html=1;fontSize=12;startSize=8;endSize=8;" edge="1" parent="1" source="ed4Wh0j3ZcqlSjC6VKng-16" target="ed4Wh0j3ZcqlSjC6VKng-17">
          <mxGeometry relative="1" as="geometry" />
        </mxCell>
        <mxCell id="ed4Wh0j3ZcqlSjC6VKng-16" value="&lt;b&gt;Node Endpont&lt;/b&gt;" style="rounded=1;whiteSpace=wrap;html=1;" vertex="1" parent="1">
          <mxGeometry x="2362" y="554" width="93" height="57" as="geometry" />
        </mxCell>
        <mxCell id="ed4Wh0j3ZcqlSjC6VKng-17" value="&lt;b&gt;SC Wallet&lt;/b&gt;" style="rounded=1;whiteSpace=wrap;html=1;" vertex="1" parent="1">
          <mxGeometry x="2497" y="554" width="93" height="57" as="geometry" />
        </mxCell>
        <mxCell id="ed4Wh0j3ZcqlSjC6VKng-19" value="&lt;h1 style=&quot;margin-top: 0px;&quot;&gt;&lt;font style=&quot;font-size: 18px;&quot;&gt;EVM CHAIN B&lt;/font&gt;&lt;/h1&gt;" style="text;html=1;whiteSpace=wrap;overflow=hidden;rounded=0;" vertex="1" parent="1">
          <mxGeometry x="2410.75" y="493" width="130.5" height="48" as="geometry" />
        </mxCell>
        <mxCell id="ed4Wh0j3ZcqlSjC6VKng-20" value="" style="rounded=1;whiteSpace=wrap;html=1;" vertex="1" parent="1">
          <mxGeometry x="2332" y="656" width="288" height="149" as="geometry" />
        </mxCell>
        <mxCell id="ed4Wh0j3ZcqlSjC6VKng-21" value="" style="edgeStyle=none;curved=1;rounded=0;orthogonalLoop=1;jettySize=auto;html=1;fontSize=12;startSize=8;endSize=8;" edge="1" parent="1" source="ed4Wh0j3ZcqlSjC6VKng-22" target="ed4Wh0j3ZcqlSjC6VKng-23">
          <mxGeometry relative="1" as="geometry" />
        </mxCell>
        <mxCell id="ed4Wh0j3ZcqlSjC6VKng-22" value="&lt;b&gt;Node Endpont&lt;/b&gt;" style="rounded=1;whiteSpace=wrap;html=1;" vertex="1" parent="1">
          <mxGeometry x="2362" y="722" width="93" height="57" as="geometry" />
        </mxCell>
        <mxCell id="ed4Wh0j3ZcqlSjC6VKng-23" value="&lt;b&gt;SC Wallet&lt;/b&gt;" style="rounded=1;whiteSpace=wrap;html=1;" vertex="1" parent="1">
          <mxGeometry x="2497" y="722" width="93" height="57" as="geometry" />
        </mxCell>
        <mxCell id="ed4Wh0j3ZcqlSjC6VKng-24" value="&lt;h1 style=&quot;margin-top: 0px;&quot;&gt;&lt;font style=&quot;font-size: 18px;&quot;&gt;EVM CHAIN B&lt;/font&gt;&lt;/h1&gt;" style="text;html=1;whiteSpace=wrap;overflow=hidden;rounded=0;" vertex="1" parent="1">
          <mxGeometry x="2410.75" y="661" width="130.5" height="48" as="geometry" />
        </mxCell>
        <mxCell id="ed4Wh0j3ZcqlSjC6VKng-25" value="" style="rounded=1;whiteSpace=wrap;html=1;" vertex="1" parent="1">
          <mxGeometry x="2332" y="816" width="288" height="149" as="geometry" />
        </mxCell>
        <mxCell id="ed4Wh0j3ZcqlSjC6VKng-26" value="" style="edgeStyle=none;curved=1;rounded=0;orthogonalLoop=1;jettySize=auto;html=1;fontSize=12;startSize=8;endSize=8;" edge="1" parent="1" source="ed4Wh0j3ZcqlSjC6VKng-27" target="ed4Wh0j3ZcqlSjC6VKng-28">
          <mxGeometry relative="1" as="geometry" />
        </mxCell>
        <mxCell id="ed4Wh0j3ZcqlSjC6VKng-27" value="&lt;b&gt;Node Endpont&lt;/b&gt;" style="rounded=1;whiteSpace=wrap;html=1;" vertex="1" parent="1">
          <mxGeometry x="2362" y="882" width="93" height="57" as="geometry" />
        </mxCell>
        <mxCell id="ed4Wh0j3ZcqlSjC6VKng-28" value="&lt;b&gt;SC Wallet&lt;/b&gt;" style="rounded=1;whiteSpace=wrap;html=1;" vertex="1" parent="1">
          <mxGeometry x="2497" y="882" width="93" height="57" as="geometry" />
        </mxCell>
        <mxCell id="ed4Wh0j3ZcqlSjC6VKng-29" value="&lt;h1 style=&quot;margin-top: 0px;&quot;&gt;&lt;font style=&quot;font-size: 18px;&quot;&gt;EVM CHAIN B&lt;/font&gt;&lt;/h1&gt;" style="text;html=1;whiteSpace=wrap;overflow=hidden;rounded=0;" vertex="1" parent="1">
          <mxGeometry x="2410.75" y="821" width="130.5" height="48" as="geometry" />
        </mxCell>
        <mxCell id="ed4Wh0j3ZcqlSjC6VKng-30" value="" style="rounded=1;whiteSpace=wrap;html=1;" vertex="1" parent="1">
          <mxGeometry x="2332" y="984" width="288" height="149" as="geometry" />
        </mxCell>
        <mxCell id="ed4Wh0j3ZcqlSjC6VKng-31" value="" style="edgeStyle=none;curved=1;rounded=0;orthogonalLoop=1;jettySize=auto;html=1;fontSize=12;startSize=8;endSize=8;" edge="1" parent="1" source="ed4Wh0j3ZcqlSjC6VKng-32" target="ed4Wh0j3ZcqlSjC6VKng-33">
          <mxGeometry relative="1" as="geometry" />
        </mxCell>
        <mxCell id="ed4Wh0j3ZcqlSjC6VKng-32" value="&lt;b&gt;Node Endpont&lt;/b&gt;" style="rounded=1;whiteSpace=wrap;html=1;" vertex="1" parent="1">
          <mxGeometry x="2362" y="1050" width="93" height="57" as="geometry" />
        </mxCell>
        <mxCell id="ed4Wh0j3ZcqlSjC6VKng-33" value="&lt;b&gt;Wallet service&lt;/b&gt;" style="rounded=1;whiteSpace=wrap;html=1;" vertex="1" parent="1">
          <mxGeometry x="2497" y="1050" width="93" height="57" as="geometry" />
        </mxCell>
        <mxCell id="ed4Wh0j3ZcqlSjC6VKng-34" value="&lt;h1 style=&quot;margin-top: 0px;&quot;&gt;&lt;font style=&quot;font-size: 18px;&quot;&gt;NON EVM CHAIN X&lt;/font&gt;&lt;/h1&gt;" style="text;html=1;whiteSpace=wrap;overflow=hidden;rounded=0;" vertex="1" parent="1">
          <mxGeometry x="2389.88" y="991" width="172.25" height="48" as="geometry" />
        </mxCell>
        <mxCell id="ed4Wh0j3ZcqlSjC6VKng-35" value="&lt;b&gt;USER&lt;/b&gt;" style="text;html=1;align=center;verticalAlign=middle;whiteSpace=wrap;rounded=0;fontSize=16;" vertex="1" parent="1">
          <mxGeometry x="1610" y="490" width="60" height="30" as="geometry" />
        </mxCell>
        <mxCell id="ed4Wh0j3ZcqlSjC6VKng-36" style="edgeStyle=none;curved=1;rounded=0;orthogonalLoop=1;jettySize=auto;html=1;entryX=0.518;entryY=-0.231;entryDx=0;entryDy=0;entryPerimeter=0;fontSize=12;startSize=8;endSize=8;" edge="1" parent="1" source="ed4Wh0j3ZcqlSjC6VKng-4" target="ed4Wh0j3ZcqlSjC6VKng-8">
          <mxGeometry relative="1" as="geometry" />
        </mxCell>
        <mxCell id="ed4Wh0j3ZcqlSjC6VKng-37" value="send userOps" style="edgeLabel;html=1;align=center;verticalAlign=middle;resizable=0;points=[];fontSize=12;" vertex="1" connectable="0" parent="ed4Wh0j3ZcqlSjC6VKng-36">
          <mxGeometry x="-0.3517" y="-1" relative="1" as="geometry">
            <mxPoint as="offset" />
          </mxGeometry>
        </mxCell>
        <mxCell id="ed4Wh0j3ZcqlSjC6VKng-40" style="edgeStyle=none;curved=1;rounded=0;orthogonalLoop=1;jettySize=auto;html=1;entryX=-0.013;entryY=0.366;entryDx=0;entryDy=0;entryPerimeter=0;fontSize=12;startSize=8;endSize=8;" edge="1" parent="1" source="ed4Wh0j3ZcqlSjC6VKng-11" target="ed4Wh0j3ZcqlSjC6VKng-20">
          <mxGeometry relative="1" as="geometry" />
        </mxCell>
        <mxCell id="ed4Wh0j3ZcqlSjC6VKng-42" value="&lt;span style=&quot;font-size: 64px; white-space-collapse: preserve;&quot; id=&quot;docs-internal-guid-959a6f91-7fff-b8e9-4861-ab606f9bcb6d&quot;&gt;&lt;p dir=&quot;ltr&quot; style=&quot;line-height: 1.08; margin-top: 0pt; margin-bottom: 0pt;&quot;&gt;&lt;font face=&quot;Barlow, sans-serif&quot; color=&quot;#ff9e44&quot;&gt;&lt;b&gt;Universal Account&lt;/b&gt;&lt;/font&gt;&lt;/p&gt;&lt;/span&gt;" style="text;whiteSpace=wrap;html=1;" vertex="1" parent="1">
          <mxGeometry x="1638" y="991" width="579" height="86.5" as="geometry" />
        </mxCell>
      </root>
    </mxGraphModel>
  </diagram>
</mxfile>
